<svg xmlns="http://www.w3.org/2000/svg" viewBox="0 0 320 340" fill="none">
  <ellipse cx="168" cy="318" rx="78" ry="14" fill="#C9DCF8" opacity="0.7"/>
  <path d="M118 214c-18 18-30 48-32 86h148c-2-40-16-72-38-90-18-14-46-18-78 4Z" fill="#2F6BEE"/>
  <path d="M128 216c14-10 36-16 56-8 18 8 30 24 36 52-22-8-44-12-68-8-16 2-28 8-24-36Z" fill="#3D7CFF"/>
  <path d="M142 168c-8 22-6 44 4 62 18-4 38-4 56 0 8-20 8-42-2-62-16-8-42-8-58 0Z" fill="#F4D3B0"/>
  <path d="M148 226c10 18 28 22 46 8 2 14-4 28-16 34-18 8-34 0-30-42Z" fill="#EEF4FF"/>
  <path d="M154 230c8 12 22 14 34 4 0 10-6 20-16 24-14 6-24 0-18-28Z" fill="#D7E6FF"/>
  <path d="M132 148c-2 28 8 52 28 62 22 8 46 2 58-18 8-14 10-34 4-52-8-22-28-36-52-36-22 0-38 16-38 44Z" fill="#F6C7A0"/>
  <ellipse cx="118" cy="176" rx="12" ry="16" fill="#F6C7A0"/>
  <ellipse cx="208" cy="174" rx="12" ry="16" fill="#F6C7A0"/>
  <path d="M108 142c12-46 36-70 64-74 28-4 54 16 64 44 6 16 4 32-6 42-18-18-40-28-64-26-22 2-42 12-58 14Z" fill="#2A1A14"/>
  <path d="M112 150c16-28 36-40 58-42 24-2 46 10 58 30-14-8-30-14-48-12-22 2-42 12-68 24Z" fill="#1A100E"/>
  <path d="M186 118c18 6 32 20 38 38 8-16 6-36-8-50-10-10-22-12-30 12Z" fill="#2A1A14"/>
  <circle cx="148" cy="168" r="8" fill="#fff"/>
  <circle cx="190" cy="166" r="8" fill="#fff"/>
  <circle cx="149" cy="169" r="4.2" fill="#2B2118"/>
  <circle cx="191" cy="167" r="4.2" fill="#2B2118"/>
  <path d="M163 182c4 10 14 12 20 4" stroke="#C9846A" stroke-width="3" stroke-linecap="round"/>
  <path d="M152 198c10 10 28 12 40 0" stroke="#E08A78" stroke-width="4" stroke-linecap="round"/>
  <path d="M136 160c8-6 16-6 22 0" stroke="#2B2118" stroke-width="3" stroke-linecap="round"/>
  <path d="M180 158c8-6 16-6 22 0" stroke="#2B2118" stroke-width="3" stroke-linecap="round"/>
  <path d="M78 96c-8 28-2 52 18 62 8-18 22-32 40-40-8-18-28-30-58-22Z" fill="#F6C7A0"/>
  <path d="M70 88c-18 6-30 28-22 54 8 22 28 30 46 22 4-20 14-36 30-48-12-20-34-34-54-28Z" fill="#F6C7A0"/>
  <path d="M86 78c-10 4-18 16-16 30 14-6 26-4 36 4 2-16-6-30-20-34Z" fill="#F6C7A0"/>
  <path d="M118 214c-20 8-38 8-54-8-10 18-8 40 4 58 18 10 38 8 54-8-8-12-10-28 0-42Z" fill="#2F6BEE"/>
  <path d="M96 248c8 8 20 10 32 4 2 16-8 32-24 36-18 4-32-8-28-28 2-6 10-10 20-12Z" fill="#EEF4FF"/>
</svg>
